<?xml version='1.0' encoding='utf-8'?>
<svg xmlns="http://www.w3.org/2000/svg" width="91.44mm" height="91.44mm" version="1.1" style="shape-rendering:geometricPrecision; text-rendering:geometricPrecision; image-rendering:optimizeQuality; fill-rule:evenodd; clip-rule:evenodd" viewBox="0 0 9144 9144"> <defs> <style type="text/css">  .fil0 {fill:#F0F0F0} .fil1 {fill:#011627;fill-rule:nonzero}  </style> </defs> <g id="Layer_x0020_1"> <metadata id="CorelCorpID_0Corel-Layer"/> <g id="_2744629481440"> <polygon class="fil0" points="0,0 9144,0 9144,9144 0,9144 "/> <path class="fil1" d="M2455 2367l4234 0c48,0 88,40 88,88l0 4234c0,48 -40,88 -88,88l-4234 0c-48,0 -88,-40 -88,-88l0 -4234c0,-48 40,-88 88,-88zm3112 2282l-1693 952c-42,24 -96,9 -120,-34 -7,-13 -11,-28 -11,-43l0 -1905c0,-48 39,-88 88,-88 18,0 34,5 47,14l1689 950c43,24 58,78 34,120 -8,15 -20,27 -34,34zm-1648 725l1426 -802 -1426 -802 0 1604zm2681 -2830l-4056 0 0 4056 4056 0 0 -4056z"/> </g> </g> </svg>